<svg width="18" height="18" viewBox="0 0 18 18" fill="none" xmlns="http://www.w3.org/2000/svg">
<path d="M16.081 9.83366C16.7713 9.83366 17.331 10.3933 17.331 11.0837V16.0837C17.331 16.774 16.7713 17.3337 16.081 17.3337H11.081C10.3906 17.3337 9.83098 16.774 9.83098 16.0837V11.0837C9.83098 10.3933 10.3906 9.83366 11.081 9.83366H16.081ZM6.91675 9.83366C7.6071 9.83366 8.16675 10.3933 8.16675 11.0837V16.0837C8.16675 16.774 7.6071 17.3337 6.91675 17.3337H1.91675C1.22639 17.3337 0.666748 16.774 0.666748 16.0837V11.0837C0.666748 10.3933 1.22639 9.83366 1.91675 9.83366H6.91675ZM15.9142 11.2503H11.2476V15.917H15.9142V11.2503ZM6.75008 11.2503H2.08341V15.917H6.75008V11.2503ZM6.91675 0.666992C7.6071 0.666992 8.16675 1.22664 8.16675 1.91699V6.91699C8.16675 7.60735 7.6071 8.16699 6.91675 8.16699H1.91675C1.22639 8.16699 0.666748 7.60735 0.666748 6.91699V1.91699C0.666748 1.22664 1.22639 0.666992 1.91675 0.666992H6.91675ZM16.081 0.666992C16.7713 0.666992 17.331 1.22664 17.331 1.91699V6.91699C17.331 7.60735 16.7713 8.16699 16.081 8.16699H11.081C10.3906 8.16699 9.83098 7.60735 9.83098 6.91699V1.91699C9.83098 1.22664 10.3906 0.666992 11.081 0.666992H16.081ZM6.75008 2.08366H2.08341V6.75033H6.75008V2.08366ZM15.9142 2.08366H11.2476V6.75033H15.9142V2.08366Z" fill="white"/>
</svg>
