<svg width="20" height="20" viewBox="0 0 20 20" fill="none" xmlns="http://www.w3.org/2000/svg">
<g opacity="0.8">
<path d="M17.081 10.8337C17.7713 10.8337 18.331 11.3933 18.331 12.0837V17.0837C18.331 17.774 17.7713 18.3337 17.081 18.3337H12.081C11.3906 18.3337 10.831 17.774 10.831 17.0837V12.0837C10.831 11.3933 11.3906 10.8337 12.081 10.8337H17.081ZM7.91675 10.8337C8.6071 10.8337 9.16675 11.3933 9.16675 12.0837V17.0837C9.16675 17.774 8.6071 18.3337 7.91675 18.3337H2.91675C2.22639 18.3337 1.66675 17.774 1.66675 17.0837V12.0837C1.66675 11.3933 2.22639 10.8337 2.91675 10.8337H7.91675ZM16.9142 12.2503H12.2476V16.917H16.9142V12.2503ZM7.75008 12.2503H3.08341V16.917H7.75008V12.2503ZM7.91675 1.66699C8.6071 1.66699 9.16675 2.22664 9.16675 2.91699V7.91699C9.16675 8.60735 8.6071 9.16699 7.91675 9.16699H2.91675C2.22639 9.16699 1.66675 8.60735 1.66675 7.91699V2.91699C1.66675 2.22664 2.22639 1.66699 2.91675 1.66699H7.91675ZM17.081 1.66699C17.7713 1.66699 18.331 2.22664 18.331 2.91699V7.91699C18.331 8.60735 17.7713 9.16699 17.081 9.16699H12.081C11.3906 9.16699 10.831 8.60735 10.831 7.91699V2.91699C10.831 2.22664 11.3906 1.66699 12.081 1.66699H17.081ZM7.75008 3.08366H3.08341V7.75033H7.75008V3.08366ZM16.9142 3.08366H12.2476V7.75033H16.9142V3.08366Z" fill="white"/>
</g>
</svg>
