<svg width="20" height="20" viewBox="0 0 20 20" fill="none" xmlns="http://www.w3.org/2000/svg">
<g opacity="0.8">
<path fill-rule="evenodd" clip-rule="evenodd" d="M2.6626 10.9371C2.6626 10.5091 3.00958 10.1621 3.4376 10.1621H7.8126C8.24062 10.1621 8.5876 10.5091 8.5876 10.9371C8.5876 11.3651 8.24062 11.7121 7.8126 11.7121H4.2126V16.5621C4.2126 16.9901 3.86562 17.3371 3.4376 17.3371C3.00958 17.3371 2.6626 16.9901 2.6626 16.5621V10.9371Z" fill="white"/>
<path fill-rule="evenodd" clip-rule="evenodd" d="M1.4126 16.5621C1.4126 16.1341 1.75958 15.7871 2.1876 15.7871H17.8126C18.2406 15.7871 18.5876 16.1341 18.5876 16.5621C18.5876 16.9901 18.2406 17.3371 17.8126 17.3371H2.1876C1.75958 17.3371 1.4126 16.9901 1.4126 16.5621Z" fill="white"/>
<path fill-rule="evenodd" clip-rule="evenodd" d="M7.0376 7.18711C7.0376 6.75909 7.38458 6.41211 7.8126 6.41211H12.1876C12.6156 6.41211 12.9626 6.75909 12.9626 7.18711C12.9626 7.61513 12.6156 7.96211 12.1876 7.96211H8.5876V16.5621C8.5876 16.9901 8.24062 17.3371 7.8126 17.3371C7.38458 17.3371 7.0376 16.9901 7.0376 16.5621V7.18711Z" fill="white"/>
<path fill-rule="evenodd" clip-rule="evenodd" d="M11.4126 3.43711C11.4126 3.00909 11.7596 2.66211 12.1876 2.66211H16.5626C16.9906 2.66211 17.3376 3.00909 17.3376 3.43711V16.5621C17.3376 16.9901 16.9906 17.3371 16.5626 17.3371H12.1876C11.7596 17.3371 11.4126 16.9901 11.4126 16.5621V3.43711ZM12.9626 4.21211V15.7871H15.7876V4.21211H12.9626Z" fill="white"/>
</g>
</svg>
