<svg width="20" height="20" viewBox="0 0 20 20" fill="none" xmlns="http://www.w3.org/2000/svg">
<g opacity="0.8">
<path fill-rule="evenodd" clip-rule="evenodd" d="M0.833252 3.03731C0.833252 2.65265 1.14372 2.34082 1.5267 2.34082H13.0811C13.4641 2.34082 13.7745 2.65265 13.7745 3.03731V13.095C13.7745 13.4796 13.4641 13.7915 13.0811 13.7915H1.5267C1.14372 13.7915 0.833252 13.4796 0.833252 13.095V3.03731ZM2.22016 3.7338V12.3985H12.3876V3.7338H2.22016Z" fill="white"/>
<path fill-rule="evenodd" clip-rule="evenodd" d="M12.3876 6.90567C12.3876 6.52101 12.6981 6.20918 13.0811 6.20918H16.1623C16.3462 6.20918 16.5226 6.28256 16.6526 6.41318L18.9635 8.73417C19.0935 8.86479 19.1666 9.04195 19.1666 9.22667V13.095C19.1666 13.4797 18.8561 13.7915 18.4731 13.7915L13.0811 13.7915C12.6981 13.7915 12.3876 13.4797 12.3876 13.095V6.90567ZM13.7745 7.60216V12.3985H17.7797V9.51516L15.875 7.60216H13.7745Z" fill="white"/>
<path fill-rule="evenodd" clip-rule="evenodd" d="M4.99297 13.7914C4.31241 13.7914 3.7607 14.3456 3.7607 15.0291C3.7607 15.7127 4.31241 16.2668 4.99297 16.2668C5.67354 16.2668 6.22525 15.7127 6.22525 15.0291C6.22525 14.3456 5.67354 13.7914 4.99297 13.7914ZM2.37379 15.0291C2.37379 13.5763 3.54644 12.3985 4.99297 12.3985C6.43951 12.3985 7.61216 13.5763 7.61216 15.0291C7.61216 16.482 6.43951 17.6598 4.99297 17.6598C3.54644 17.6598 2.37379 16.482 2.37379 15.0291Z" fill="white"/>
<path fill-rule="evenodd" clip-rule="evenodd" d="M15.0068 13.7914C14.3262 13.7914 13.7745 14.3456 13.7745 15.0291C13.7745 15.7127 14.3262 16.2668 15.0068 16.2668C15.6874 16.2668 16.2391 15.7127 16.2391 15.0291C16.2391 14.3456 15.6874 13.7914 15.0068 13.7914ZM12.3876 15.0291C12.3876 13.5763 13.5603 12.3985 15.0068 12.3985C16.4533 12.3985 17.626 13.5763 17.626 15.0291C17.626 16.482 16.4533 17.6598 15.0068 17.6598C13.5603 17.6598 12.3876 16.482 12.3876 15.0291Z" fill="white"/>
</g>
</svg>
