<svg width="16" height="16" viewBox="0 0 16 16" fill="none" xmlns="http://www.w3.org/2000/svg">
<path fill-rule="evenodd" clip-rule="evenodd" d="M1.62288 9.93326C1.83116 9.72499 2.16885 9.72499 2.37713 9.93326L4.64088 12.197L6.90462 9.93326C7.1129 9.72499 7.45059 9.72499 7.65887 9.93326C7.86715 10.1415 7.86715 10.4792 7.65887 10.6875L5.018 13.3284C4.80972 13.5367 4.47203 13.5367 4.26375 13.3284L1.62288 10.6875C1.4146 10.4792 1.4146 10.1415 1.62288 9.93326Z" fill="#4D4D4D"/>
<path fill-rule="evenodd" clip-rule="evenodd" d="M4.64083 2.51466C4.93538 2.51466 5.17416 2.75345 5.17416 3.048L5.17416 12.9513C5.17416 13.2458 4.93538 13.4846 4.64083 13.4846C4.34628 13.4846 4.1075 13.2458 4.1075 12.9513L4.1075 3.048C4.1075 2.75345 4.34628 2.51466 4.64083 2.51466Z" fill="#4D4D4D"/>
<path fill-rule="evenodd" clip-rule="evenodd" d="M14.3771 6.06597C14.1688 6.27425 13.8311 6.27425 13.6229 6.06597L11.3591 3.80223L9.09538 6.06597C8.8871 6.27425 8.54941 6.27425 8.34113 6.06597C8.13285 5.85769 8.13285 5.52 8.34113 5.31173L10.982 2.67086C11.1903 2.46258 11.528 2.46258 11.7362 2.67086L14.3771 5.31173C14.5854 5.52001 14.5854 5.85769 14.3771 6.06597Z" fill="#4D4D4D"/>
<path fill-rule="evenodd" clip-rule="evenodd" d="M11.3592 13.4846C11.0646 13.4846 10.8258 13.2458 10.8258 12.9512L10.8258 3.04799C10.8258 2.75343 11.0646 2.51465 11.3592 2.51465C11.6537 2.51465 11.8925 2.75343 11.8925 3.04799L11.8925 12.9512C11.8925 13.2458 11.6537 13.4846 11.3592 13.4846Z" fill="#4D4D4D"/>
</svg>
